<svg xmlns="http://www.w3.org/2000/svg" viewBox="0 0 512 512">
    <path fill="#000000" d="M448,96H280.9L221.3,36.4C208.6,23.7,191.1,16,173.1,16H64C28.7,16,0,44.7,0,80v352c0,35.3,28.7,64,64,64h384 c35.3,0,64-28.7,64-64V160C512,124.7,483.3,96,448,96z"/>
    
    <path fill="#FFFFFF" d="M432,128H288l-64-64H80c-26.5,0-48,21.5-48,48v320c0,26.5,21.5,48,48,48h352c26.5,0,48-21.5,48-48V176 C480,149.5,458.5,128,432,128z"/>
    
    <rect x="128" y="224" width="256" height="24" fill="#000000"/>
    <rect x="128" y="272" width="256" height="24" fill="#000000"/>
    <rect x="128" y="320" width="256" height="24" fill="#000000"/>
    
    <polygon points="256,464 160,368 208,368 208,320 304,320 304,368 352,368" fill="#000000"/>
</svg>
